<?xml version="1.0" standalone="no"?>
<!DOCTYPE svg PUBLIC "-//W3C//DTD SVG 20010904//EN"
 "http://www.w3.org/TR/2001/REC-SVG-20010904/DTD/svg10.dtd">
<svg version="1.0" xmlns="http://www.w3.org/2000/svg"
 width="1280.000000pt" height="1280.000000pt" viewBox="0 0 1280.000000 1280.000000"
 preserveAspectRatio="xMidYMid meet">
<metadata>
Created by potrace 1.15, written by Peter Selinger 2001-2017
</metadata>
<g transform="translate(0.000000,1280.000000) scale(0.100000,-0.100000)"
fill="#000000" stroke="none">
<path d="M5601 11930 c-5 -17 -18 -33 -28 -37 -10 -3 -26 -13 -35 -21 -17 -14
-18 -46 -18 -414 0 -392 0 -400 22 -437 19 -33 76 -71 107 -71 4 0 19 -9 32
-21 l24 -21 0 -611 c0 -567 -2 -615 -18 -657 -10 -25 -29 -56 -43 -70 -18 -20
-25 -41 -30 -90 -8 -86 -14 -97 -54 -118 -27 -13 -36 -25 -41 -52 -10 -60 -36
-110 -63 -120 -14 -5 -33 -26 -43 -47 -11 -23 -33 -46 -57 -59 -21 -12 -45
-35 -53 -51 -7 -16 -29 -37 -48 -46 -19 -9 -61 -44 -92 -78 -32 -34 -75 -78
-97 -98 -21 -20 -47 -53 -57 -73 -13 -25 -26 -38 -39 -38 -20 0 -24 -6 -50
-76 -6 -16 -24 -38 -40 -47 -30 -18 -42 -48 -55 -130 -4 -26 -14 -42 -33 -54
-37 -24 -40 -29 -47 -97 -9 -83 -42 -199 -60 -212 -41 -31 -40 99 -43 -3639
-1 -1964 1 -3602 5 -3639 7 -63 11 -71 38 -86 17 -9 31 -26 33 -37 5 -36 34
-50 137 -71 98 -20 132 -21 1417 -21 1168 0 1324 2 1375 16 32 8 75 19 97 23
26 5 53 22 83 53 l45 45 4 3648 c2 2007 -1 3682 -5 3723 -7 65 -12 77 -39 100
-33 29 -48 68 -57 150 -7 61 -19 91 -39 91 -15 0 -56 71 -56 98 0 35 -22 72
-47 78 -23 6 -51 52 -68 112 -4 12 -24 31 -45 42 -30 16 -40 27 -45 54 -5 25
-15 37 -41 49 -20 10 -41 31 -51 51 -9 20 -26 37 -39 40 -33 9 -138 98 -164
141 -12 20 -33 41 -47 46 -14 5 -31 26 -43 53 -11 26 -27 47 -40 51 -26 8 -46
40 -54 86 -4 24 -14 39 -30 47 -29 13 -51 77 -65 186 -7 57 -15 84 -31 101
-51 54 -53 83 -58 610 -2 270 -1 519 3 554 9 81 29 103 111 120 l61 11 7 47
c11 79 7 837 -4 870 -7 18 -26 38 -49 51 -39 22 -41 22 -684 22 l-645 0 -11
-30z m261 -3118 c7 -7 -3 -28 -29 -64 -67 -92 -47 -53 -258 -508 -37 -80 -87
-201 -112 -270 l-44 -125 1 -218 c1 -153 -2 -222 -10 -232 -16 -20 -3 -54 24
-61 22 -5 81 24 198 99 81 51 134 77 143 69 5 -4 5 -2 1 5 -30 53 397 97 715
74 147 -11 157 -13 228 -48 245 -123 525 -352 598 -488 39 -75 78 -212 136
-480 25 -115 54 -246 64 -290 17 -76 18 -210 19 -2645 1 -1411 -1 -2586 -3
-2612 l-5 -48 -72 0 c-63 0 -85 6 -167 41 -199 86 -286 139 -385 232 -93 88
-155 163 -253 309 l-53 77 -731 4 c-403 1 -742 7 -754 11 -13 5 -27 23 -34 43
-6 19 -22 45 -36 57 -14 11 -32 37 -41 56 -16 32 -17 254 -15 3004 2 2709 3
2976 18 3045 9 42 24 87 34 101 10 14 20 42 24 63 3 20 34 105 68 188 53 127
72 161 124 222 79 92 378 378 413 395 31 14 178 10 194 -6z"/>
<path d="M6564 5665 c-3 -8 -13 -17 -23 -20 -24 -7 -107 -191 -93 -208 12 -14
6 -53 -11 -74 -6 -9 -6 -22 1 -40 6 -16 10 -64 9 -109 0 -44 3 -85 7 -92 4 -6
5 -30 2 -52 -2 -23 0 -38 5 -34 5 3 9 -11 9 -30 0 -19 5 -38 11 -42 6 -3 9
-19 7 -35 -3 -17 1 -34 9 -40 7 -6 13 -21 13 -32 0 -12 7 -41 17 -65 19 -50 9
-68 -31 -58 -34 8 -96 64 -96 85 0 25 -40 59 -173 146 -122 80 -140 98 -131
132 4 13 -2 25 -18 35 -13 9 -34 26 -48 39 -72 67 -224 150 -262 142 -14 -3
-43 0 -62 7 -28 9 -40 9 -51 0 -9 -7 -26 -9 -45 -5 -23 5 -32 3 -36 -9 -5 -13
-14 -15 -39 -10 -19 3 -35 1 -39 -5 -4 -6 -20 -11 -35 -11 -15 0 -33 -6 -39
-12 -7 -7 -30 -18 -50 -23 -40 -11 -100 -82 -168 -198 -30 -52 -34 -64 -30
-114 3 -30 12 -63 20 -72 8 -9 18 -29 22 -44 7 -32 72 -87 159 -137 42 -24 62
-30 84 -25 20 4 42 0 71 -15 30 -15 45 -18 54 -10 7 5 35 10 62 10 69 -1 135
10 161 27 12 8 28 11 34 7 8 -4 9 -3 5 4 -5 8 1 12 16 12 13 1 39 14 58 30 19
17 44 30 56 30 12 0 29 10 38 23 9 12 14 15 10 7 -4 -8 -3 -11 1 -7 5 4 10 14
11 21 4 30 75 127 87 120 6 -4 9 -4 5 1 -9 9 16 35 34 35 18 0 106 -53 146
-89 23 -20 32 -35 28 -48 -4 -13 7 -27 38 -51 69 -52 106 -91 106 -111 0 -11
21 -39 46 -63 l46 -44 -15 -35 c-19 -45 -41 -62 -74 -56 -15 3 -35 0 -44 -6
-15 -9 -31 -2 -91 40 -40 27 -91 59 -113 70 -43 22 -176 37 -191 23 -5 -5 -30
-10 -56 -12 -25 -2 -44 -7 -40 -12 3 -5 -2 -6 -12 -3 -9 4 -27 0 -40 -8 -12
-8 -26 -12 -30 -8 -4 5 -6 1 -4 -7 2 -10 -6 -16 -27 -18 -20 -2 -43 -18 -71
-48 -24 -25 -47 -42 -55 -39 -22 8 -33 -3 -98 -99 -50 -74 -59 -93 -54 -118 3
-16 0 -47 -7 -68 -10 -31 -10 -42 -1 -54 7 -9 10 -24 6 -36 -5 -17 4 -31 47
-71 29 -27 51 -55 50 -62 -2 -7 -1 -9 3 -5 4 3 44 -11 89 -32 72 -33 91 -37
147 -35 35 1 66 4 69 5 3 2 16 4 30 6 60 7 97 18 121 36 14 10 35 20 48 21 13
1 35 16 51 33 15 17 44 37 64 44 27 9 46 26 73 66 19 29 40 51 46 47 6 -3 7
-1 3 5 -4 6 5 28 18 49 19 28 24 48 21 72 -2 19 2 49 9 66 8 18 11 44 9 59 -7
33 11 56 38 49 11 -3 28 2 38 11 18 16 22 16 63 -4 60 -31 107 -77 101 -100
-3 -12 6 -31 26 -52 19 -20 30 -40 27 -51 -3 -12 9 -33 30 -57 22 -25 32 -43
28 -54 -8 -21 32 -66 58 -66 13 0 17 7 16 24 -1 14 -6 22 -10 20 -4 -3 -8 8
-8 24 0 18 -10 38 -30 57 -18 18 -30 39 -30 55 0 16 -12 37 -30 55 -16 16 -30
39 -30 51 0 13 -11 40 -25 60 -14 20 -25 45 -25 55 0 10 -18 33 -41 51 -29 23
-39 38 -35 52 3 12 -5 31 -24 53 -17 19 -30 41 -30 51 0 9 16 44 35 77 50 87
56 104 46 124 -7 12 -1 35 19 81 22 49 26 68 18 85 -8 17 -5 32 11 64 17 32
19 46 11 62 -8 14 -8 29 -1 52 20 60 -4 319 -34 378 -8 15 -15 38 -15 51 0 15
-12 31 -33 46 -39 26 -46 27 -53 7z"/>
<path d="M7375 5461 c-3 -6 -22 -11 -41 -11 -19 0 -34 -4 -34 -10 0 -5 -15
-10 -32 -10 -29 -1 -40 -10 -88 -71 -32 -42 -67 -76 -86 -84 -18 -7 -46 -32
-62 -54 -16 -22 -33 -37 -37 -33 -5 4 -5 2 -2 -5 4 -6 -7 -34 -24 -61 -17 -27
-32 -65 -33 -83 -3 -39 -8 -49 -88 -180 -46 -77 -58 -106 -58 -138 0 -24 -10
-62 -24 -89 -14 -28 -24 -66 -24 -95 -1 -26 -4 -52 -7 -57 -3 -5 -1 -11 3 -14
5 -3 22 8 37 24 15 16 32 27 37 24 5 -3 7 0 6 8 -2 8 6 13 19 12 12 0 20 3 17
8 -3 4 1 8 9 8 9 0 35 24 59 53 52 63 65 75 99 88 27 10 92 93 237 302 39 57
72 107 72 111 0 3 20 39 45 78 36 58 44 79 39 101 -3 16 0 42 6 58 10 23 10
35 1 52 -6 12 -10 33 -9 47 3 25 -24 41 -37 21z"/>
</g>
</svg>
